<svg xmlns="http://www.w3.org/2000/svg" xmlns:xlink="http://www.w3.org/1999/xlink" width="400" zoomAndPan="magnify" viewBox="0 0 300 299.999988" height="400" preserveAspectRatio="xMidYMid meet" version="1.0"><defs><g/><clipPath id="7ef9e70fd0"><rect x="0" width="136" y="0" height="223"/></clipPath><clipPath id="d796bd1001"><rect x="0" width="85" y="0" height="29"/></clipPath><clipPath id="3e273be9e9"><rect x="0" width="55" y="0" height="15"/></clipPath></defs><rect x="-30" width="360" fill="#ffffff" y="-29.999999" height="359.999986" fill-opacity="1"/><rect x="-30" width="360" fill="#f0e7d6" y="-29.999999" height="359.999986" fill-opacity="1"/><g transform="matrix(1, 0, 0, 1, 78, 0)"><g clip-path="url(#7ef9e70fd0)"><g fill="#0a0a0a" fill-opacity="1"><g transform="translate(1.382834, 185.254259)"><g><path d="M 81.265625 -102.796875 L 81.078125 -102.796875 C 81.078125 -104.148438 81.109375 -105.566406 81.171875 -107.046875 C 81.234375 -108.535156 81.265625 -109.960938 81.265625 -111.328125 C 81.265625 -113.921875 81.234375 -116.546875 81.171875 -119.203125 C 81.109375 -121.867188 81.078125 -124.5 81.078125 -127.09375 C 81.078125 -127.34375 81.046875 -127.59375 80.984375 -127.84375 C 80.929688 -128.09375 80.90625 -128.28125 80.90625 -128.40625 C 80.78125 -129.019531 80.40625 -129.515625 79.78125 -129.890625 L 78.484375 -130.0625 C 76.878906 -130.0625 75.207031 -130.03125 73.46875 -129.96875 C 71.738281 -129.914062 70.007812 -129.890625 68.28125 -129.890625 C 66.675781 -129.890625 65.035156 -129.945312 63.359375 -130.0625 C 61.691406 -130.1875 59.992188 -130.25 58.265625 -130.25 C 57.765625 -130.25 57.394531 -130.1875 57.15625 -130.0625 C 56.28125 -129.820312 55.722656 -129.207031 55.484375 -128.21875 C 55.484375 -127.96875 55.539062 -127.71875 55.65625 -127.46875 C 55.78125 -127.21875 55.84375 -126.972656 55.84375 -126.734375 C 55.84375 -125.117188 55.78125 -123.414062 55.65625 -121.625 C 55.539062 -119.832031 55.484375 -118.070312 55.484375 -116.34375 C 55.484375 -114.601562 55.453125 -112.867188 55.390625 -111.140625 C 55.328125 -109.410156 55.296875 -107.679688 55.296875 -105.953125 C 55.296875 -103.722656 55.328125 -101.523438 55.390625 -99.359375 C 55.453125 -97.191406 55.484375 -95.054688 55.484375 -92.953125 C 55.484375 -90.859375 55.515625 -88.726562 55.578125 -86.5625 C 55.640625 -84.394531 55.671875 -82.257812 55.671875 -80.15625 C 55.671875 -79.78125 55.609375 -79.4375 55.484375 -79.125 C 55.359375 -78.820312 55.296875 -78.546875 55.296875 -78.296875 C 55.171875 -78.054688 55.109375 -77.625 55.109375 -77 C 54.984375 -76.132812 54.613281 -75.207031 54 -74.21875 C 53.875 -73.84375 53.65625 -73.5 53.34375 -73.1875 C 53.03125 -72.882812 52.753906 -72.609375 52.515625 -72.359375 C 51.523438 -71.492188 50.410156 -70.878906 49.171875 -70.515625 C 48.304688 -70.015625 47.316406 -69.765625 46.203125 -69.765625 C 45.828125 -69.765625 45.453125 -69.671875 45.078125 -69.484375 C 44.710938 -69.296875 44.34375 -69.265625 43.96875 -69.390625 C 43.226562 -69.515625 42.519531 -69.734375 41.84375 -70.046875 C 41.164062 -70.359375 40.515625 -70.695312 39.890625 -71.0625 C 39.640625 -71.3125 39.390625 -71.585938 39.140625 -71.890625 C 38.898438 -72.203125 38.65625 -72.421875 38.40625 -72.546875 L 38.03125 -72.921875 C 37.914062 -73.171875 37.703125 -73.382812 37.390625 -73.5625 C 37.078125 -73.75 36.859375 -73.90625 36.734375 -74.03125 C 36.609375 -74.28125 36.546875 -74.585938 36.546875 -74.953125 C 36.546875 -75.328125 36.425781 -75.578125 36.1875 -75.703125 C 36.0625 -76.316406 35.90625 -76.929688 35.71875 -77.546875 C 35.53125 -78.171875 35.375 -78.734375 35.25 -79.234375 C 35.25 -79.722656 35.21875 -80.148438 35.15625 -80.515625 C 35.09375 -80.890625 35.0625 -81.265625 35.0625 -81.640625 C 35.0625 -84.117188 35.03125 -86.625 34.96875 -89.15625 C 34.914062 -91.6875 34.890625 -94.128906 34.890625 -96.484375 C 34.890625 -98.960938 34.914062 -101.46875 34.96875 -104 C 35.03125 -106.53125 35.0625 -108.972656 35.0625 -111.328125 C 35.0625 -113.804688 35.09375 -116.3125 35.15625 -118.84375 C 35.21875 -121.375 35.25 -123.816406 35.25 -126.171875 C 35.25 -126.296875 35.1875 -126.390625 35.0625 -126.453125 C 34.945312 -126.515625 34.890625 -126.609375 34.890625 -126.734375 C 35.003906 -126.972656 35.125 -127.25 35.25 -127.5625 C 35.375 -127.875 35.375 -128.15625 35.25 -128.40625 C 35.007812 -129.394531 34.394531 -130.007812 33.40625 -130.25 C 33.28125 -130.25 33.15625 -130.1875 33.03125 -130.0625 C 32.90625 -129.945312 32.71875 -129.890625 32.46875 -129.890625 C 31.226562 -129.890625 30.019531 -129.945312 28.84375 -130.0625 C 27.675781 -130.1875 26.410156 -130.25 25.046875 -130.25 C 24.679688 -130.25 24.34375 -130.21875 24.03125 -130.15625 C 23.71875 -130.09375 23.378906 -130.0625 23.015625 -130.0625 L 21.15625 -130.25 C 19.664062 -130.25 18.207031 -130.21875 16.78125 -130.15625 C 15.363281 -130.09375 13.976562 -130.0625 12.625 -130.0625 C 12 -130.0625 11.503906 -130.003906 11.140625 -129.890625 C 10.890625 -129.890625 10.515625 -129.515625 10.015625 -128.765625 C 9.890625 -128.523438 9.828125 -128.21875 9.828125 -127.84375 C 9.828125 -127.46875 9.828125 -127.160156 9.828125 -126.921875 C 9.828125 -126.796875 9.796875 -126.671875 9.734375 -126.546875 C 9.679688 -126.421875 9.65625 -126.234375 9.65625 -125.984375 C 9.65625 -123.640625 9.625 -121.195312 9.5625 -118.65625 C 9.5 -116.125 9.46875 -113.617188 9.46875 -111.140625 C 9.46875 -108.796875 9.4375 -106.351562 9.375 -103.8125 C 9.3125 -101.28125 9.28125 -98.773438 9.28125 -96.296875 C 9.28125 -93.828125 9.34375 -91.351562 9.46875 -88.875 C 9.59375 -86.40625 9.65625 -83.929688 9.65625 -81.453125 L 9.65625 -80.34375 C 9.65625 -80.34375 9.59375 -80.3125 9.46875 -80.25 C 9.34375 -80.1875 9.28125 -80.15625 9.28125 -80.15625 C 9.28125 -80.03125 9.367188 -79.90625 9.546875 -79.78125 C 9.734375 -79.65625 9.828125 -79.535156 9.828125 -79.421875 C 9.710938 -78.921875 9.679688 -78.453125 9.734375 -78.015625 C 9.796875 -77.585938 9.828125 -77.125 9.828125 -76.625 C 9.953125 -76.132812 9.984375 -75.671875 9.921875 -75.234375 C 9.859375 -74.804688 9.828125 -74.34375 9.828125 -73.84375 C 10.078125 -72.976562 10.328125 -72.082031 10.578125 -71.15625 C 10.828125 -70.226562 11.070312 -69.269531 11.3125 -68.28125 C 11.5625 -67.789062 11.78125 -67.328125 11.96875 -66.890625 C 12.15625 -66.453125 12.375 -65.988281 12.625 -65.5 C 13.238281 -63.894531 13.851562 -62.535156 14.46875 -61.421875 C 14.84375 -60.796875 15.242188 -60.234375 15.671875 -59.734375 C 16.109375 -59.242188 16.578125 -58.691406 17.078125 -58.078125 C 17.566406 -57.460938 18.085938 -56.875 18.640625 -56.3125 C 19.203125 -55.757812 19.726562 -55.171875 20.21875 -54.546875 C 20.59375 -54.179688 20.960938 -53.78125 21.328125 -53.34375 C 21.703125 -52.914062 22.140625 -52.515625 22.640625 -52.140625 C 23.128906 -51.765625 23.585938 -51.328125 24.015625 -50.828125 C 24.453125 -50.335938 24.921875 -49.972656 25.421875 -49.734375 C 25.910156 -49.359375 26.398438 -49.078125 26.890625 -48.890625 C 27.390625 -48.703125 27.890625 -48.488281 28.390625 -48.25 C 28.640625 -48.125 28.914062 -48 29.21875 -47.875 C 29.53125 -47.75 29.8125 -47.625 30.0625 -47.5 C 30.425781 -47.25 30.859375 -47.003906 31.359375 -46.765625 C 32.097656 -46.390625 32.46875 -45.707031 32.46875 -44.71875 C 32.59375 -44.46875 32.65625 -44.035156 32.65625 -43.421875 C 32.65625 -41.191406 32.59375 -38.992188 32.46875 -36.828125 C 32.34375 -34.660156 32.28125 -32.53125 32.28125 -30.4375 C 32.28125 -28.207031 32.34375 -26.007812 32.46875 -23.84375 C 32.59375 -21.675781 32.65625 -19.539062 32.65625 -17.4375 C 32.65625 -15.21875 32.59375 -13.023438 32.46875 -10.859375 C 32.34375 -8.691406 32.28125 -6.554688 32.28125 -4.453125 C 32.28125 -4.078125 32.3125 -3.703125 32.375 -3.328125 C 32.4375 -2.960938 32.46875 -2.65625 32.46875 -2.40625 C 32.46875 -2.039062 32.59375 -1.609375 32.84375 -1.109375 C 33.09375 -0.617188 33.460938 -0.25 33.953125 0 C 34.203125 0.125 34.421875 0.21875 34.609375 0.28125 C 34.796875 0.34375 35.007812 0.375 35.25 0.375 C 36.988281 0.375 38.691406 0.40625 40.359375 0.46875 C 42.023438 0.53125 43.722656 0.5625 45.453125 0.5625 L 55.484375 0.5625 C 55.847656 0.5625 56.28125 0.4375 56.78125 0.1875 C 57.03125 0.1875 57.210938 0.125 57.328125 0 C 57.578125 -0.25 57.796875 -0.492188 57.984375 -0.734375 C 58.171875 -0.984375 58.328125 -1.234375 58.453125 -1.484375 C 58.453125 -1.734375 58.421875 -1.976562 58.359375 -2.21875 C 58.296875 -2.46875 58.265625 -2.71875 58.265625 -2.96875 L 58.265625 -16.515625 C 58.265625 -18.867188 58.234375 -21.15625 58.171875 -23.375 C 58.109375 -25.601562 58.078125 -27.894531 58.078125 -30.25 C 58.078125 -32.46875 58.140625 -34.722656 58.265625 -37.015625 C 58.390625 -39.304688 58.453125 -41.566406 58.453125 -43.796875 L 58.453125 -45.28125 C 58.691406 -45.769531 58.9375 -46.078125 59.1875 -46.203125 L 59.9375 -46.765625 C 60.175781 -46.878906 60.453125 -47 60.765625 -47.125 C 61.078125 -47.25 61.359375 -47.375 61.609375 -47.5 C 61.847656 -47.75 62.09375 -47.90625 62.34375 -47.96875 C 62.59375 -48.03125 62.84375 -48.125 63.09375 -48.25 C 63.582031 -48.488281 64.070312 -48.796875 64.5625 -49.171875 C 65.0625 -49.546875 65.5625 -49.914062 66.0625 -50.28125 L 67.71875 -51.21875 C 67.96875 -51.457031 68.1875 -51.765625 68.375 -52.140625 C 68.5625 -52.515625 68.78125 -52.820312 69.03125 -53.0625 C 69.269531 -53.3125 69.578125 -53.585938 69.953125 -53.890625 C 70.328125 -54.203125 70.695312 -54.484375 71.0625 -54.734375 C 71.4375 -55.234375 71.835938 -55.632812 72.265625 -55.9375 C 72.703125 -56.25 73.109375 -56.65625 73.484375 -57.15625 C 73.847656 -57.644531 74.210938 -58.164062 74.578125 -58.71875 C 74.953125 -59.28125 75.265625 -59.804688 75.515625 -60.296875 C 76.503906 -61.660156 77.25 -63.023438 77.75 -64.390625 C 78.113281 -65.003906 78.453125 -65.648438 78.765625 -66.328125 C 79.078125 -67.015625 79.351562 -67.664062 79.59375 -68.28125 L 80.71875 -72.359375 C 80.84375 -72.609375 80.875 -72.914062 80.8125 -73.28125 C 80.75 -73.65625 80.78125 -74.03125 80.90625 -74.40625 C 80.90625 -74.78125 80.929688 -75.117188 80.984375 -75.421875 C 81.046875 -75.734375 81.078125 -76.078125 81.078125 -76.453125 C 81.203125 -76.816406 81.265625 -77.210938 81.265625 -77.640625 C 81.265625 -78.078125 81.265625 -78.546875 81.265625 -79.046875 C 81.140625 -81.023438 81.078125 -83.003906 81.078125 -84.984375 C 81.078125 -86.960938 81.078125 -88.941406 81.078125 -90.921875 C 81.078125 -92.898438 81.109375 -94.878906 81.171875 -96.859375 C 81.234375 -98.835938 81.265625 -100.816406 81.265625 -102.796875 Z M 81.265625 -102.796875 "/></g></g></g><g fill="#0a0a0a" fill-opacity="1"><g transform="translate(77.639956, 185.254259)"><g><path d="M 12.25 -65.125 C 12.25 -62.65625 12.28125 -60.148438 12.34375 -57.609375 C 12.40625 -55.078125 12.4375 -52.507812 12.4375 -49.90625 C 12.4375 -47.4375 12.40625 -44.929688 12.34375 -42.390625 C 12.28125 -39.859375 12.25 -37.359375 12.25 -34.890625 C 12.25 -32.410156 12.28125 -29.898438 12.34375 -27.359375 C 12.40625 -24.828125 12.4375 -22.265625 12.4375 -19.671875 C 12.4375 -17.191406 12.375 -14.679688 12.25 -12.140625 C 12.125 -9.609375 12.0625 -7.109375 12.0625 -4.640625 C 12.0625 -4.390625 12.125 -4.078125 12.25 -3.703125 C 12.375 -3.335938 12.5 -3.03125 12.625 -2.78125 C 12.625 -2.164062 12.742188 -1.796875 12.984375 -1.671875 C 13.609375 -0.804688 14.226562 -0.375 14.84375 -0.375 C 15.832031 -0.125 16.515625 0 16.890625 0 C 19.734375 0 22.578125 -0.03125 25.421875 -0.09375 C 28.265625 -0.15625 31.046875 -0.1875 33.765625 -0.1875 C 36.609375 -0.1875 39.421875 -0.21875 42.203125 -0.28125 C 44.992188 -0.34375 47.75 -0.375 50.46875 -0.375 C 50.84375 -0.375 51.210938 -0.34375 51.578125 -0.28125 C 51.953125 -0.21875 52.382812 -0.25 52.875 -0.375 C 54.363281 -0.738281 55.234375 -1.476562 55.484375 -2.59375 C 55.609375 -2.96875 55.640625 -3.367188 55.578125 -3.796875 C 55.515625 -4.234375 55.484375 -4.640625 55.484375 -5.015625 L 55.484375 -15.765625 C 55.484375 -16.390625 55.539062 -16.945312 55.65625 -17.4375 C 55.78125 -17.9375 55.785156 -18.429688 55.671875 -18.921875 C 55.671875 -19.171875 55.671875 -19.476562 55.671875 -19.84375 C 55.671875 -20.21875 55.546875 -20.53125 55.296875 -20.78125 C 55.171875 -21.03125 54.953125 -21.242188 54.640625 -21.421875 C 54.335938 -21.609375 54 -21.765625 53.625 -21.890625 C 53.125 -22.140625 52.320312 -22.265625 51.21875 -22.265625 C 49.976562 -22.265625 48.738281 -22.328125 47.5 -22.453125 C 46.257812 -22.578125 45.023438 -22.640625 43.796875 -22.640625 C 43.671875 -22.640625 43.515625 -22.671875 43.328125 -22.734375 C 43.140625 -22.796875 42.921875 -22.828125 42.671875 -22.828125 C 42.546875 -22.828125 42.453125 -22.765625 42.390625 -22.640625 C 42.335938 -22.515625 42.25 -22.453125 42.125 -22.453125 C 42 -22.328125 41.84375 -22.328125 41.65625 -22.453125 C 41.46875 -22.578125 41.3125 -22.640625 41.1875 -22.640625 L 40.828125 -22.640625 C 40.328125 -22.640625 39.828125 -22.671875 39.328125 -22.734375 C 38.835938 -22.796875 38.285156 -22.890625 37.671875 -23.015625 C 37.171875 -23.253906 36.765625 -23.5625 36.453125 -23.9375 C 36.148438 -24.3125 35.875 -24.742188 35.625 -25.234375 C 35.25 -25.847656 35 -26.460938 34.875 -27.078125 C 34.757812 -27.703125 34.640625 -28.328125 34.515625 -28.953125 C 34.515625 -29.191406 34.484375 -29.46875 34.421875 -29.78125 C 34.359375 -30.09375 34.328125 -30.367188 34.328125 -30.609375 L 34.328125 -32.28125 C 34.328125 -34.507812 34.390625 -36.738281 34.515625 -38.96875 C 34.640625 -41.195312 34.703125 -43.421875 34.703125 -45.640625 C 34.703125 -47.867188 34.640625 -50.097656 34.515625 -52.328125 C 34.390625 -54.554688 34.328125 -56.71875 34.328125 -58.8125 C 34.328125 -61.039062 34.359375 -63.269531 34.421875 -65.5 C 34.484375 -67.726562 34.515625 -69.953125 34.515625 -72.171875 L 34.515625 -85.53125 C 34.515625 -87.757812 34.546875 -89.988281 34.609375 -92.21875 C 34.671875 -94.445312 34.703125 -96.671875 34.703125 -98.890625 C 34.703125 -101.117188 34.671875 -103.347656 34.609375 -105.578125 C 34.546875 -107.804688 34.515625 -110.03125 34.515625 -112.25 L 34.515625 -125.4375 C 34.515625 -125.800781 34.453125 -126.140625 34.328125 -126.453125 C 34.203125 -126.765625 34.078125 -127.039062 33.953125 -127.28125 C 33.953125 -127.53125 33.984375 -127.75 34.046875 -127.9375 C 34.109375 -128.125 34.078125 -128.28125 33.953125 -128.40625 C 33.828125 -128.644531 33.578125 -128.859375 33.203125 -129.046875 C 32.835938 -129.234375 32.53125 -129.390625 32.28125 -129.515625 C 31.914062 -129.640625 31.546875 -129.734375 31.171875 -129.796875 C 30.796875 -129.859375 30.425781 -129.890625 30.0625 -129.890625 C 28.082031 -129.890625 26.070312 -129.859375 24.03125 -129.796875 C 21.988281 -129.734375 19.914062 -129.703125 17.8125 -129.703125 C 17.4375 -129.703125 17.0625 -129.734375 16.6875 -129.796875 C 16.320312 -129.859375 15.957031 -129.890625 15.59375 -129.890625 C 15.34375 -129.765625 14.90625 -129.703125 14.28125 -129.703125 C 13.664062 -129.328125 13.113281 -128.707031 12.625 -127.84375 C 12.5 -127.46875 12.4375 -127.09375 12.4375 -126.71875 C 12.4375 -126.351562 12.4375 -125.984375 12.4375 -125.609375 C 12.4375 -123.140625 12.40625 -120.601562 12.34375 -118 C 12.28125 -115.40625 12.25 -112.875 12.25 -110.40625 C 12.25 -107.925781 12.21875 -105.414062 12.15625 -102.875 C 12.09375 -100.34375 12.0625 -97.84375 12.0625 -95.375 C 12.0625 -92.894531 12.125 -90.382812 12.25 -87.84375 C 12.375 -85.3125 12.4375 -82.75 12.4375 -80.15625 C 12.4375 -77.6875 12.40625 -75.179688 12.34375 -72.640625 C 12.28125 -70.109375 12.25 -67.601562 12.25 -65.125 Z M 12.25 -65.125 "/></g></g></g></g></g><g transform="matrix(1, 0, 0, 1, 107, 208)"><g clip-path="url(#d796bd1001)"><g fill="#0a0a0a" fill-opacity="1"><g transform="translate(1.513725, 23.043008)"><g><path d="M 6.921875 0.234375 C 6.160156 0.234375 5.457031 0.128906 4.8125 -0.078125 C 4.164062 -0.285156 3.609375 -0.582031 3.140625 -0.96875 C 2.671875 -1.363281 2.300781 -1.835938 2.03125 -2.390625 C 1.769531 -2.953125 1.628906 -3.578125 1.609375 -4.265625 L 3.796875 -4.265625 C 3.796875 -3.867188 3.875 -3.507812 4.03125 -3.1875 C 4.195312 -2.863281 4.425781 -2.582031 4.71875 -2.34375 C 5.007812 -2.113281 5.347656 -1.929688 5.734375 -1.796875 C 6.117188 -1.671875 6.523438 -1.609375 6.953125 -1.609375 C 7.921875 -1.609375 8.691406 -1.832031 9.265625 -2.28125 C 9.835938 -2.738281 10.125 -3.363281 10.125 -4.15625 C 10.125 -4.8125 9.914062 -5.394531 9.5 -5.90625 C 9.082031 -6.425781 8.484375 -6.832031 7.703125 -7.125 L 5.953125 -7.765625 C 3.378906 -8.703125 2.09375 -10.253906 2.09375 -12.421875 C 2.09375 -13.804688 2.53125 -14.882812 3.40625 -15.65625 C 4.28125 -16.4375 5.488281 -16.828125 7.03125 -16.828125 C 7.75 -16.828125 8.40625 -16.722656 9 -16.515625 C 9.601562 -16.316406 10.125 -16.023438 10.5625 -15.640625 C 11 -15.265625 11.34375 -14.800781 11.59375 -14.25 C 11.851562 -13.707031 11.988281 -13.097656 12 -12.421875 L 9.8125 -12.421875 C 9.8125 -12.804688 9.734375 -13.15625 9.578125 -13.46875 C 9.429688 -13.78125 9.226562 -14.046875 8.96875 -14.265625 C 8.71875 -14.492188 8.421875 -14.671875 8.078125 -14.796875 C 7.742188 -14.921875 7.382812 -14.984375 7 -14.984375 C 6.125 -14.984375 5.4375 -14.773438 4.9375 -14.359375 C 4.4375 -13.941406 4.1875 -13.378906 4.1875 -12.671875 C 4.1875 -11.984375 4.375 -11.410156 4.75 -10.953125 C 5.132812 -10.503906 5.75 -10.125 6.59375 -9.8125 L 8.4375 -9.15625 C 9.664062 -8.707031 10.601562 -8.0625 11.25 -7.21875 C 11.894531 -6.375 12.21875 -5.375 12.21875 -4.21875 C 12.21875 -2.832031 11.742188 -1.742188 10.796875 -0.953125 C 9.847656 -0.160156 8.554688 0.234375 6.921875 0.234375 Z M 6.921875 0.234375 "/></g></g></g><g fill="#0a0a0a" fill-opacity="1"><g transform="translate(15.335915, 23.043008)"><g><path d="M 1.03125 -16.59375 L 12.796875 -16.59375 L 12.796875 -14.765625 L 7.96875 -14.765625 L 7.96875 0 L 5.859375 0 L 5.859375 -14.765625 L 1.03125 -14.765625 Z M 1.03125 -16.59375 "/></g></g></g><g fill="#0a0a0a" fill-opacity="1"><g transform="translate(29.158105, 23.043008)"><g><path d="M 6.921875 0.234375 C 5.335938 0.234375 4.113281 -0.191406 3.25 -1.046875 C 2.382812 -1.910156 1.953125 -3.097656 1.953125 -4.609375 L 1.953125 -16.59375 L 4.03125 -16.59375 L 4.03125 -4.609375 C 4.03125 -3.691406 4.273438 -2.960938 4.765625 -2.421875 C 5.265625 -1.878906 5.984375 -1.609375 6.921875 -1.609375 C 7.835938 -1.609375 8.546875 -1.878906 9.046875 -2.421875 C 9.546875 -2.960938 9.796875 -3.691406 9.796875 -4.609375 L 9.796875 -16.59375 L 11.875 -16.59375 L 11.875 -4.609375 C 11.875 -3.085938 11.441406 -1.898438 10.578125 -1.046875 C 9.710938 -0.191406 8.492188 0.234375 6.921875 0.234375 Z M 6.921875 0.234375 "/></g></g></g><g fill="#0a0a0a" fill-opacity="1"><g transform="translate(42.980295, 23.043008)"><g><path d="M 6.65625 -1.84375 C 7.625 -1.84375 8.40625 -2.140625 9 -2.734375 C 9.59375 -3.328125 9.890625 -4.109375 9.890625 -5.078125 L 9.890625 -11.546875 C 9.890625 -12.515625 9.59375 -13.289062 9 -13.875 C 8.40625 -14.457031 7.625 -14.75 6.65625 -14.75 L 4.109375 -14.75 L 4.109375 -1.84375 Z M 2.03125 0 L 2.03125 -16.59375 L 6.65625 -16.59375 C 7.457031 -16.59375 8.179688 -16.46875 8.828125 -16.21875 C 9.484375 -15.976562 10.046875 -15.640625 10.515625 -15.203125 C 10.984375 -14.765625 11.34375 -14.234375 11.59375 -13.609375 C 11.851562 -12.984375 11.984375 -12.296875 11.984375 -11.546875 L 11.984375 -5.078125 C 11.984375 -4.316406 11.851562 -3.617188 11.59375 -2.984375 C 11.34375 -2.359375 10.984375 -1.828125 10.515625 -1.390625 C 10.046875 -0.953125 9.484375 -0.609375 8.828125 -0.359375 C 8.179688 -0.117188 7.457031 0 6.65625 0 Z M 2.03125 0 "/></g></g></g><g fill="#0a0a0a" fill-opacity="1"><g transform="translate(56.802485, 23.043008)"><g><path d="M 5.859375 -1.828125 L 5.859375 -14.765625 L 2.1875 -14.765625 L 2.1875 -16.59375 L 11.640625 -16.59375 L 11.640625 -14.765625 L 7.96875 -14.765625 L 7.96875 -1.828125 L 11.640625 -1.828125 L 11.640625 0 L 2.1875 0 L 2.1875 -1.828125 Z M 5.859375 -1.828125 "/></g></g></g><g fill="#0a0a0a" fill-opacity="1"><g transform="translate(70.624675, 23.043008)"><g><path d="M 3.921875 -4.71875 C 3.921875 -3.769531 4.1875 -3.015625 4.71875 -2.453125 C 5.257812 -1.890625 5.992188 -1.609375 6.921875 -1.609375 C 7.835938 -1.609375 8.5625 -1.890625 9.09375 -2.453125 C 9.632812 -3.015625 9.90625 -3.769531 9.90625 -4.71875 L 9.90625 -11.875 C 9.90625 -12.820312 9.632812 -13.578125 9.09375 -14.140625 C 8.5625 -14.703125 7.835938 -14.984375 6.921875 -14.984375 C 5.992188 -14.984375 5.257812 -14.703125 4.71875 -14.140625 C 4.1875 -13.578125 3.921875 -12.820312 3.921875 -11.875 Z M 1.84375 -11.875 C 1.84375 -12.625 1.960938 -13.304688 2.203125 -13.921875 C 2.441406 -14.535156 2.78125 -15.054688 3.21875 -15.484375 C 3.65625 -15.921875 4.179688 -16.253906 4.796875 -16.484375 C 5.421875 -16.710938 6.128906 -16.828125 6.921875 -16.828125 C 7.703125 -16.828125 8.398438 -16.710938 9.015625 -16.484375 C 9.640625 -16.253906 10.171875 -15.921875 10.609375 -15.484375 C 11.046875 -15.054688 11.382812 -14.535156 11.625 -13.921875 C 11.863281 -13.304688 11.984375 -12.625 11.984375 -11.875 L 11.984375 -4.71875 C 11.984375 -3.96875 11.863281 -3.289062 11.625 -2.6875 C 11.382812 -2.082031 11.046875 -1.5625 10.609375 -1.125 C 10.171875 -0.695312 9.632812 -0.363281 9 -0.125 C 8.375 0.113281 7.679688 0.234375 6.921875 0.234375 C 6.128906 0.234375 5.421875 0.117188 4.796875 -0.109375 C 4.179688 -0.347656 3.65625 -0.679688 3.21875 -1.109375 C 2.78125 -1.535156 2.441406 -2.054688 2.203125 -2.671875 C 1.960938 -3.285156 1.84375 -3.96875 1.84375 -4.71875 Z M 1.84375 -11.875 "/></g></g></g></g></g><g transform="matrix(1, 0, 0, 1, 123, 239)"><g clip-path="url(#3e273be9e9)"><g fill="#0a0a0a" fill-opacity="1"><g transform="translate(0.796608, 11.931126)"><g><path d="M 0.953125 0 L 0.953125 -8.015625 L 5.890625 -8.015625 L 5.890625 -6.78125 L 2.34375 -6.78125 L 2.34375 -4.734375 L 5.5 -4.734375 L 5.5 -3.5 L 2.34375 -3.5 L 2.34375 -1.21875 L 5.890625 -1.21875 L 5.890625 0 Z M 0.953125 0 "/></g></g></g><g fill="#0a0a0a" fill-opacity="1"><g transform="translate(6.511075, 11.931126)"><g><path d="M 3.34375 0.109375 C 2.945312 0.109375 2.582031 0.0546875 2.25 -0.046875 C 1.914062 -0.148438 1.628906 -0.300781 1.390625 -0.5 C 1.160156 -0.695312 0.976562 -0.929688 0.84375 -1.203125 C 0.707031 -1.472656 0.628906 -1.78125 0.609375 -2.125 L 2.03125 -2.125 C 2.050781 -1.800781 2.179688 -1.546875 2.421875 -1.359375 C 2.660156 -1.179688 2.976562 -1.09375 3.375 -1.09375 C 3.78125 -1.09375 4.09375 -1.1875 4.3125 -1.375 C 4.539062 -1.5625 4.65625 -1.8125 4.65625 -2.125 C 4.65625 -2.394531 4.570312 -2.628906 4.40625 -2.828125 C 4.238281 -3.035156 4 -3.1875 3.6875 -3.28125 L 2.84375 -3.53125 C 1.457031 -3.90625 0.765625 -4.695312 0.765625 -5.90625 C 0.765625 -6.238281 0.828125 -6.539062 0.953125 -6.8125 C 1.078125 -7.09375 1.25 -7.332031 1.46875 -7.53125 C 1.6875 -7.726562 1.957031 -7.875 2.28125 -7.96875 C 2.601562 -8.070312 2.960938 -8.125 3.359375 -8.125 C 4.117188 -8.125 4.726562 -7.929688 5.1875 -7.546875 C 5.65625 -7.160156 5.90625 -6.625 5.9375 -5.9375 L 4.53125 -5.9375 C 4.507812 -6.238281 4.390625 -6.472656 4.171875 -6.640625 C 3.953125 -6.816406 3.671875 -6.90625 3.328125 -6.90625 C 2.960938 -6.90625 2.675781 -6.816406 2.46875 -6.640625 C 2.257812 -6.472656 2.15625 -6.25 2.15625 -5.96875 C 2.15625 -5.4375 2.476562 -5.078125 3.125 -4.890625 L 4.015625 -4.65625 C 4.679688 -4.46875 5.1875 -4.160156 5.53125 -3.734375 C 5.882812 -3.316406 6.0625 -2.800781 6.0625 -2.1875 C 6.0625 -1.84375 5.992188 -1.53125 5.859375 -1.25 C 5.734375 -0.96875 5.550781 -0.722656 5.3125 -0.515625 C 5.082031 -0.316406 4.796875 -0.160156 4.453125 -0.046875 C 4.117188 0.0546875 3.75 0.109375 3.34375 0.109375 Z M 3.34375 0.109375 "/></g></g></g><g fill="#0a0a0a" fill-opacity="1"><g transform="translate(12.225543, 11.931126)"><g><path d="M 0.4375 -8.015625 L 6.234375 -8.015625 L 6.234375 -6.734375 L 4.03125 -6.734375 L 4.03125 0 L 2.640625 0 L 2.640625 -6.734375 L 0.4375 -6.734375 Z M 0.4375 -8.015625 "/></g></g></g><g fill="#0a0a0a" fill-opacity="1"><g transform="translate(17.94001, 11.931126)"><g><path d="M 3.28125 -1.28125 C 3.675781 -1.28125 3.992188 -1.394531 4.234375 -1.625 C 4.472656 -1.863281 4.59375 -2.171875 4.59375 -2.546875 L 4.59375 -5.46875 C 4.59375 -5.851562 4.472656 -6.160156 4.234375 -6.390625 C 3.992188 -6.617188 3.675781 -6.734375 3.28125 -6.734375 L 2.21875 -6.734375 L 2.21875 -1.28125 Z M 0.8125 0 L 0.8125 -8.015625 L 3.28125 -8.015625 C 3.6875 -8.015625 4.054688 -7.953125 4.390625 -7.828125 C 4.722656 -7.703125 5.007812 -7.523438 5.25 -7.296875 C 5.488281 -7.078125 5.671875 -6.8125 5.796875 -6.5 C 5.929688 -6.195312 6 -5.851562 6 -5.46875 L 6 -2.546875 C 6 -2.171875 5.929688 -1.820312 5.796875 -1.5 C 5.671875 -1.1875 5.488281 -0.914062 5.25 -0.6875 C 5.007812 -0.46875 4.722656 -0.296875 4.390625 -0.171875 C 4.054688 -0.0546875 3.6875 0 3.28125 0 Z M 0.8125 0 "/></g></g></g><g fill="#0a0a0a" fill-opacity="1"><g transform="translate(23.654477, 11.931126)"><g/></g></g><g fill="#0a0a0a" fill-opacity="1"><g transform="translate(29.368945, 11.931126)"><g><path d="M 5.921875 -5.78125 C 5.921875 -5.5 5.882812 -5.226562 5.8125 -4.96875 C 5.738281 -4.707031 5.625 -4.445312 5.46875 -4.1875 C 5.320312 -3.9375 5.128906 -3.679688 4.890625 -3.421875 C 4.648438 -3.171875 4.367188 -2.910156 4.046875 -2.640625 L 2.890625 -1.6875 C 2.710938 -1.550781 2.554688 -1.445312 2.421875 -1.375 C 2.335938 -1.332031 2.257812 -1.296875 2.1875 -1.265625 L 2.1875 -1.21875 C 2.289062 -1.226562 2.398438 -1.238281 2.515625 -1.25 C 2.617188 -1.25 2.726562 -1.25 2.84375 -1.25 C 2.96875 -1.25 3.09375 -1.25 3.21875 -1.25 L 6.015625 -1.25 L 6.015625 0 L 0.640625 0 L 0.640625 -1.46875 L 3.203125 -3.546875 C 3.671875 -3.929688 4.003906 -4.289062 4.203125 -4.625 C 4.410156 -4.96875 4.515625 -5.328125 4.515625 -5.703125 C 4.515625 -6.066406 4.40625 -6.351562 4.1875 -6.5625 C 3.976562 -6.78125 3.6875 -6.890625 3.3125 -6.890625 C 2.914062 -6.890625 2.597656 -6.785156 2.359375 -6.578125 C 2.117188 -6.378906 2 -6.109375 2 -5.765625 L 0.59375 -5.765625 C 0.59375 -6.117188 0.660156 -6.441406 0.796875 -6.734375 C 0.929688 -7.023438 1.117188 -7.269531 1.359375 -7.46875 C 1.597656 -7.675781 1.882812 -7.835938 2.21875 -7.953125 C 2.550781 -8.066406 2.925781 -8.125 3.34375 -8.125 C 3.726562 -8.125 4.078125 -8.066406 4.390625 -7.953125 C 4.710938 -7.835938 4.984375 -7.675781 5.203125 -7.46875 C 5.429688 -7.269531 5.609375 -7.023438 5.734375 -6.734375 C 5.859375 -6.453125 5.921875 -6.132812 5.921875 -5.78125 Z M 5.921875 -5.78125 "/></g></g></g><g fill="#0a0a0a" fill-opacity="1"><g transform="translate(35.083412, 11.931126)"><g><path d="M 2.8125 -4.5 C 2.8125 -4.675781 2.859375 -4.816406 2.953125 -4.921875 C 3.054688 -5.023438 3.1875 -5.078125 3.34375 -5.078125 C 3.5 -5.078125 3.625 -5.023438 3.71875 -4.921875 C 3.8125 -4.816406 3.859375 -4.675781 3.859375 -4.5 L 3.859375 -3.390625 C 3.859375 -3.222656 3.8125 -3.082031 3.71875 -2.96875 C 3.625 -2.863281 3.5 -2.8125 3.34375 -2.8125 C 3.1875 -2.8125 3.054688 -2.863281 2.953125 -2.96875 C 2.859375 -3.082031 2.8125 -3.222656 2.8125 -3.390625 Z M 2.046875 -2.34375 C 2.046875 -1.96875 2.160156 -1.664062 2.390625 -1.4375 C 2.628906 -1.21875 2.945312 -1.109375 3.34375 -1.109375 C 3.726562 -1.109375 4.039062 -1.21875 4.28125 -1.4375 C 4.519531 -1.664062 4.640625 -1.96875 4.640625 -2.34375 L 4.640625 -5.671875 C 4.640625 -6.046875 4.519531 -6.34375 4.28125 -6.5625 C 4.039062 -6.789062 3.726562 -6.90625 3.34375 -6.90625 C 2.945312 -6.90625 2.628906 -6.789062 2.390625 -6.5625 C 2.160156 -6.34375 2.046875 -6.046875 2.046875 -5.671875 Z M 0.671875 -2.34375 L 0.671875 -5.671875 C 0.671875 -6.046875 0.734375 -6.378906 0.859375 -6.671875 C 0.992188 -6.972656 1.175781 -7.234375 1.40625 -7.453125 C 1.632812 -7.671875 1.910156 -7.835938 2.234375 -7.953125 C 2.566406 -8.066406 2.9375 -8.125 3.34375 -8.125 C 3.738281 -8.125 4.097656 -8.066406 4.421875 -7.953125 C 4.753906 -7.835938 5.035156 -7.671875 5.265625 -7.453125 C 5.503906 -7.234375 5.6875 -6.972656 5.8125 -6.671875 C 5.9375 -6.378906 6 -6.046875 6 -5.671875 L 6 -2.34375 C 6 -1.976562 5.9375 -1.644531 5.8125 -1.34375 C 5.6875 -1.039062 5.503906 -0.78125 5.265625 -0.5625 C 5.035156 -0.351562 4.753906 -0.1875 4.421875 -0.0625 C 4.097656 0.0507812 3.738281 0.109375 3.34375 0.109375 C 2.9375 0.109375 2.566406 0.0507812 2.234375 -0.0625 C 1.910156 -0.175781 1.632812 -0.335938 1.40625 -0.546875 C 1.175781 -0.765625 0.992188 -1.023438 0.859375 -1.328125 C 0.734375 -1.640625 0.671875 -1.976562 0.671875 -2.34375 Z M 0.671875 -2.34375 "/></g></g></g><g fill="#0a0a0a" fill-opacity="1"><g transform="translate(40.797879, 11.931126)"><g><path d="M 5.921875 -5.78125 C 5.921875 -5.5 5.882812 -5.226562 5.8125 -4.96875 C 5.738281 -4.707031 5.625 -4.445312 5.46875 -4.1875 C 5.320312 -3.9375 5.128906 -3.679688 4.890625 -3.421875 C 4.648438 -3.171875 4.367188 -2.910156 4.046875 -2.640625 L 2.890625 -1.6875 C 2.710938 -1.550781 2.554688 -1.445312 2.421875 -1.375 C 2.335938 -1.332031 2.257812 -1.296875 2.1875 -1.265625 L 2.1875 -1.21875 C 2.289062 -1.226562 2.398438 -1.238281 2.515625 -1.25 C 2.617188 -1.25 2.726562 -1.25 2.84375 -1.25 C 2.96875 -1.25 3.09375 -1.25 3.21875 -1.25 L 6.015625 -1.25 L 6.015625 0 L 0.640625 0 L 0.640625 -1.46875 L 3.203125 -3.546875 C 3.671875 -3.929688 4.003906 -4.289062 4.203125 -4.625 C 4.410156 -4.96875 4.515625 -5.328125 4.515625 -5.703125 C 4.515625 -6.066406 4.40625 -6.351562 4.1875 -6.5625 C 3.976562 -6.78125 3.6875 -6.890625 3.3125 -6.890625 C 2.914062 -6.890625 2.597656 -6.785156 2.359375 -6.578125 C 2.117188 -6.378906 2 -6.109375 2 -5.765625 L 0.59375 -5.765625 C 0.59375 -6.117188 0.660156 -6.441406 0.796875 -6.734375 C 0.929688 -7.023438 1.117188 -7.269531 1.359375 -7.46875 C 1.597656 -7.675781 1.882812 -7.835938 2.21875 -7.953125 C 2.550781 -8.066406 2.925781 -8.125 3.34375 -8.125 C 3.726562 -8.125 4.078125 -8.066406 4.390625 -7.953125 C 4.710938 -7.835938 4.984375 -7.675781 5.203125 -7.46875 C 5.429688 -7.269531 5.609375 -7.023438 5.734375 -6.734375 C 5.859375 -6.453125 5.921875 -6.132812 5.921875 -5.78125 Z M 5.921875 -5.78125 "/></g></g></g><g fill="#0a0a0a" fill-opacity="1"><g transform="translate(46.512347, 11.931126)"><g><path d="M 3.84375 -5.140625 C 4.175781 -5.140625 4.476562 -5.082031 4.75 -4.96875 C 5.03125 -4.863281 5.269531 -4.707031 5.46875 -4.5 C 5.664062 -4.289062 5.816406 -4.039062 5.921875 -3.75 C 6.023438 -3.46875 6.078125 -3.144531 6.078125 -2.78125 L 6.078125 -2.328125 C 6.078125 -1.953125 6.007812 -1.613281 5.875 -1.3125 C 5.75 -1.019531 5.566406 -0.765625 5.328125 -0.546875 C 5.097656 -0.335938 4.816406 -0.175781 4.484375 -0.0625 C 4.148438 0.0507812 3.773438 0.109375 3.359375 0.109375 C 2.984375 0.109375 2.640625 0.0625 2.328125 -0.03125 C 2.023438 -0.125 1.753906 -0.253906 1.515625 -0.421875 C 1.285156 -0.585938 1.097656 -0.789062 0.953125 -1.03125 C 0.804688 -1.269531 0.710938 -1.535156 0.671875 -1.828125 L 2.09375 -1.828125 C 2.15625 -1.597656 2.300781 -1.410156 2.53125 -1.265625 C 2.757812 -1.128906 3.035156 -1.0625 3.359375 -1.0625 C 3.753906 -1.0625 4.066406 -1.175781 4.296875 -1.40625 C 4.535156 -1.632812 4.65625 -1.941406 4.65625 -2.328125 L 4.65625 -2.78125 C 4.65625 -3.15625 4.535156 -3.457031 4.296875 -3.6875 C 4.066406 -3.914062 3.753906 -4.03125 3.359375 -4.03125 C 2.847656 -4.03125 2.484375 -3.878906 2.265625 -3.578125 L 0.890625 -3.578125 L 0.953125 -8.015625 L 5.734375 -8.015625 L 5.734375 -6.78125 L 2.265625 -6.78125 L 2.21875 -4.3125 L 2.28125 -4.3125 C 2.34375 -4.457031 2.441406 -4.597656 2.578125 -4.734375 C 2.703125 -4.835938 2.863281 -4.929688 3.0625 -5.015625 C 3.269531 -5.097656 3.53125 -5.140625 3.84375 -5.140625 Z M 3.84375 -5.140625 "/></g></g></g></g></g></svg>